# xmcd
#
# Track frame offsets:
#	150
#	14870
#	30819
#	43601
#	56037
#	74082
#	83479
#	109484
#	129210
#	153029
#	170866
#	186236
#
# Disc length: 2701 seconds
#
# Revision: 3
# Processed by: cddbd v1.5.2PL0 Copyright (c) Steve Scherf et al.
# Submitted via: EasyCDDAExtractor 11.0.2.1
#
DISCID=a00a8b0c
DTITLE=Yasmin Levy - Sentir
DYEAR=2009
DGENRE=Ladino
TTITLE0=Mi Korasón
TTITLE1=El Amor Contigo
TTITLE2=Nos Llegó El Final
TTITLE3=Londje De Mi
TTITLE4=Hallelujah
TTITLE5=Una Pastora
TTITLE6=Triste Vals
TTITLE7=Jaco
TTITLE8=La Hija De Juan Simon
TTITLE9=Porque
TTITLE10=Alfonsito
TTITLE11=Yigdal
EXTD=
EXTT0=
EXTT1=
EXTT2=
EXTT3=
EXTT4=
EXTT5=
EXTT6=
EXTT7=
EXTT8=
EXTT9=
EXTT10=
EXTT11=
PLAYORDER=
